<svg width="34" height="32" viewBox="0 0 34 32" fill="none" xmlns="http://www.w3.org/2000/svg">
<path d="M26.9505 0.508301H7.05004C3.5234 0.508301 0.626465 3.40524 0.626465 6.93187V27.588C0.626465 29.3514 1.76008 30.737 3.39744 31.2406C3.77543 31.3666 4.15309 31.3666 4.53106 31.3666C5.79072 31.3666 6.924 30.737 7.68 29.7294L9.69531 26.8324C10.451 25.6988 11.8366 24.9432 13.222 24.9432H27.0764C30.6031 24.9432 33.5 22.0462 33.5 18.5196V6.93149C33.374 3.40485 30.477 0.508301 26.9505 0.508301ZM28.8397 18.6453C28.8397 19.653 27.9581 20.5346 26.9505 20.5346L13.2211 20.5343C10.3242 20.5343 7.67923 21.9199 6.04195 24.3128L5.16034 25.5725V6.93163C5.16034 5.92397 6.04195 5.04235 7.04961 5.04235H27.076C28.0837 5.04235 28.9653 5.92397 28.9653 6.93163L28.9656 18.6457L28.8397 18.6453Z" fill="#D17456"/>
<path d="M12.8432 10.3321C11.3319 10.3321 10.0723 11.5918 10.0723 13.1031C10.0723 14.6144 11.3319 15.8741 12.8432 15.8741C14.3546 15.8741 15.6142 14.6144 15.6142 13.1031C15.6142 11.5918 14.3546 10.3321 12.8432 10.3321Z" fill="#D17456"/>
<path d="M21.4083 10.3321C19.897 10.3321 18.6374 11.5918 18.6374 13.1031C18.6374 14.6144 19.897 15.8741 21.4083 15.8741C22.9197 15.8741 24.1793 14.6144 24.1793 13.1031C24.1793 11.5918 22.9197 10.3321 21.4083 10.3321Z" fill="#D17456"/>
</svg>
